<svg width="100" height="100" viewBox="0 0 100 100" fill="none" xmlns="http://www.w3.org/2000/svg">
<path d="M100 61.9482C100 56.3212 94.8503 51.7068 88.3837 51.3954C88.5973 50.6108 88.7063 49.8021 88.7063 48.9825C88.7063 43.1543 83.1821 38.4129 76.3923 38.4129H74.2711C74.4818 37.6332 74.5892 36.8304 74.5892 36.0165C74.5892 30.1883 69.065 25.4471 62.2753 25.4471H59.0569C59.9158 24.1484 60.4087 22.6493 60.4087 21.0523C60.4087 16.9788 57.2152 13.5361 52.8653 12.465C53.9101 7.95194 58.5574 4.53943 64.117 4.53943C65.5772 4.53943 66.7613 3.52328 66.7613 2.26971C66.7613 1.01615 65.5772 0 64.117 0C55.6704 0 48.667 5.39171 47.5228 12.3754C42.9757 13.3321 39.591 16.8583 39.591 21.0521C39.591 22.649 40.0842 24.1482 40.9428 25.4469H37.7247C30.9347 25.4469 25.4108 30.1883 25.4108 36.0163C25.4108 36.8302 25.5184 37.6332 25.7289 38.4127H23.6077C16.8177 38.4127 11.2937 43.1543 11.2937 48.9823C11.2937 49.8018 11.403 50.6105 11.6163 51.3952C5.14975 51.7066 0 56.3209 0 61.948C0 67.1384 4.38264 71.4638 10.1377 72.3487L16.6471 98.2094C16.9102 99.2542 17.9864 99.9998 19.2316 99.9998H34.6071L34.6126 100L34.6174 99.9998H65.3831L65.3879 100L65.3934 99.9998H80.7686C82.0138 99.9998 83.0903 99.2542 83.3532 98.2094L89.8626 72.3487C95.6174 71.4638 100 67.1386 100 61.9482ZM44.8796 21.0521C44.8796 18.6287 47.1767 16.6572 49.9997 16.6572C52.823 16.6572 55.1199 18.6289 55.1199 21.0521C55.1199 23.4754 52.8228 25.4469 49.9997 25.4469C47.1767 25.4469 44.8796 23.4754 44.8796 21.0521ZM15.5902 72.5176H28.7825L31.6701 95.4606H21.3653L15.5902 72.5176ZM65.8977 72.5176L63.0101 95.4606H52.644V72.5176H65.8977ZM47.3557 95.4606H36.9896L34.102 72.5176H47.3554L47.3557 95.4606ZM78.6344 95.4606H68.3297L71.2169 72.5176H84.4093L78.6344 95.4606ZM87.6861 67.9782H12.3136C8.43977 67.9782 5.28831 65.2731 5.28831 61.9482C5.28831 58.6233 8.43977 55.918 12.3136 55.918H73.0957C74.5559 55.918 75.74 54.9017 75.74 53.6483C75.74 52.395 74.5559 51.3786 73.0957 51.3786H17.1638C16.7838 50.6273 16.582 49.8162 16.582 48.9825C16.582 45.6576 19.7335 42.9523 23.6074 42.9523H29.7273C30.7073 42.9523 31.6066 42.4872 32.0649 41.7437C32.5229 41.0004 32.4644 40.1002 31.9128 39.405C31.119 38.4043 30.6994 37.2326 30.6994 36.0165C30.6994 32.6916 33.8508 29.9866 37.7247 29.9866H62.275C66.1486 29.9866 69.3004 32.6916 69.3004 36.0165C69.3004 36.8502 69.0986 37.6616 68.7186 38.4129H41.0211C39.5606 38.4129 38.3768 39.4293 38.3768 40.6826C38.3768 41.9359 39.5606 42.9523 41.0211 42.9523H70.2724H76.3923C80.266 42.9523 83.4177 45.6576 83.4177 48.9825C83.4177 50.1981 82.998 51.37 82.2039 52.3709C81.6524 53.0662 81.5939 53.9659 82.0522 54.7094C82.5102 55.453 83.4098 55.918 84.3897 55.918H87.6861C91.5597 55.918 94.7114 58.6233 94.7114 61.9482C94.7114 65.2731 91.5597 67.9782 87.6861 67.9782Z" fill="#FC6D9F"/>
</svg>
